<svg id="Layer_5" enable-background="new 0 0 64 64" height="512" viewBox="0 0 64 64" width="512" xmlns="http://www.w3.org/2000/svg"><g><g><g><path d="m50 3v2c0 .55-.45 1-1 1h-1.25-43.75-1c-.55 0-1-.45-1-1v-2c0-.55.45-1 1-1h46c.55 0 1 .45 1 1z" fill="#ccd1d9"/></g><g><path d="m32 27c0 1.07.28 2.1.81 3h-28.81v-24h43.75c-1.87 0-3.55.76-4.77 1.98s-1.98 2.9-1.98 4.77c0 1.46.47 2.88 1.35 4.05l.19.25c-.37.09-.69.28-.95.54-.37.36-.59.86-.59 1.41 0 1.1.9 2 2 2h2.08.02c.2.98.68 1.86 1.36 2.54.35.35.75.64 1.19.87l-.65 2.59-7.88.99c-.08.01-.16.01-.24.01-1.04 0-1.88-.84-1.88-1.88v-5.12-3.5c0-1.38-1.12-2.5-2.5-2.5-.69 0-1.32.28-1.77.73s-.73 1.08-.73 1.77v3.5z" fill="#e6e9ed"/></g><g><path d="m57 44h-6c-.91-1.21-2.37-2-4-2-1.38 0-2.63.56-3.54 1.46-.17.17-.32.35-.46.54v-11h-5c-1.3 0-2.56-.42-3.6-1.2-.66-.49-1.2-1.1-1.59-1.8-.53-.9-.81-1.93-.81-3v-6h5v5.12c0 1.04.84 1.88 1.88 1.88.08 0 .16 0 .24-.01l7.88-.99 3 4 3-4 3.66.41c3.04.33 5.34 2.9 5.34 5.96v10.63z" fill="#ff826e"/></g><g><path d="m20 58.88v3.12h-18v-3.53c0-1.51.86-2.9 2.21-3.58l1.79-.89v4h10v-4l1.79.89c1.35.68 2.21 2.07 2.21 3.58z" fill="#b4dd7f"/></g><g><path d="m56 58.47v3.53h-18v-3.12-.41c0-1.51.86-2.9 2.21-3.58l1.79-.89v4h10v-4l1.79.89c1.35.68 2.21 2.07 2.21 3.58z" fill="#b4dd7f"/></g><g><path d="m38 58.88v3.12h-18v-3.12c0-1.72 1.1-3.25 2.74-3.79l3.26-1.09h6l3.26 1.09c1.64.54 2.74 2.07 2.74 3.79z" fill="#fcd770"/></g><g><path d="m26 54-3.26 1.09c-1.64.54-2.74 2.07-2.74 3.79v-.41c0-1.51-.86-2.9-2.21-3.58l-1.79-.89v-7c0-1.08-.34-2.07-.92-2.89.42-2.34 2.46-4.11 4.92-4.11 1.23 0 2.36.44 3.22 1.18.88.73 1.49 1.76 1.7 2.93-.58.82-.92 1.81-.92 2.89 0 1.97.46 3.92 1.34 5.68z" fill="#b27946"/></g><g><path d="m40.21 54.89c-1.35.68-2.21 2.07-2.21 3.58v.41c0-1.72-1.1-3.25-2.74-3.79l-3.26-1.09.66-1.32c.88-1.76 1.34-3.71 1.34-5.68 0-1.08-.34-2.07-.92-2.89.21-1.17.82-2.2 1.7-2.93.86-.74 1.99-1.18 3.22-1.18 2.46 0 4.5 1.77 4.92 4.11-.58.82-.92 1.81-.92 2.89v7z" fill="#b27946"/></g><g><path d="m16 54v4h-10v-4-7c0-2.76 2.24-5 5-5 1.38 0 2.63.56 3.54 1.46.2.2.38.42.54.65.58.82.92 1.81.92 2.89z" fill="#656d78"/></g><g><path d="m33.08 44.11c.58.82.92 1.81.92 2.89 0 1.97-.46 3.92-1.34 5.68l-.66 1.32h-6l-.66-1.32c-.88-1.76-1.34-3.71-1.34-5.68 0-1.08.34-2.07.92-2.89.16-.23.34-.45.54-.65.91-.9 2.16-1.46 3.54-1.46s2.63.56 3.54 1.46c.2.2.38.42.54.65z" fill="#656d78"/></g><g><path d="m52 54v4h-10v-4-7c0-1.08.34-2.07.92-2.89.02-.04.05-.08.08-.11.14-.19.29-.37.46-.54.91-.9 2.16-1.46 3.54-1.46 1.63 0 3.09.79 4 2 .63.83 1 1.87 1 3z" fill="#656d78"/></g><g><path d="m57.65 16.8-.19.25c-.15-.03-.3-.05-.46-.05h-2c0-1.1-.9-2-2-2h-6c-1.1 0-2 .9-2 2h-2c-.16 0-.31.02-.46.05l-.19-.25c-.88-1.17-1.35-2.59-1.35-4.05 0-1.87.76-3.55 1.98-4.77s2.9-1.98 4.77-1.98h1.25 3.25c3.73 0 6.75 3.02 6.75 6.75 0 1.46-.47 2.88-1.35 4.05z" fill="#b27946"/></g><g><path d="m24 14h4v12h-4z" fill="#b4dd7f"/></g><g><path d="m16 10h4v16h-4z" fill="#b4dd7f"/></g><g><path d="m8 16h4v10h-4z" fill="#b4dd7f"/></g><g><path d="m37 17.5v3.5h-5v-3.5c0-.69.28-1.32.73-1.77s1.08-.73 1.77-.73c1.38 0 2.5 1.12 2.5 2.5z" fill="#f0d0b4"/></g><g><path d="m57.46 17.05c.88.21 1.54 1.01 1.54 1.95 0 .55-.22 1.05-.59 1.41-.36.37-.86.59-1.41.59h-2.08-.02c.07-.32.1-.66.1-1v-3h2c.16 0 .31.02.46.05z" fill="#f0d0b4"/></g><g><path d="m52.35 24.41.65 2.59-3 4-3-4 .65-2.59c.7.38 1.5.59 2.35.59s1.65-.21 2.35-.59z" fill="#f0d0b4"/></g><g><path d="m55 17v3c0 .34-.03.68-.1 1-.3 1.48-1.25 2.72-2.55 3.41-.7.38-1.5.59-2.35.59s-1.65-.21-2.35-.59c-.44-.23-.84-.52-1.19-.87-.68-.68-1.16-1.56-1.36-2.54-.07-.32-.1-.66-.1-1v-3c0-1.1.9-2 2-2h6c1.1 0 2 .9 2 2z" fill="#f0d0b4"/></g><g><path d="m45 20c0 .34.03.68.1 1h-.02-2.08c-1.1 0-2-.9-2-2 0-.55.22-1.05.59-1.41.26-.26.58-.45.95-.54.15-.03.3-.05.46-.05h2z" fill="#f0d0b4"/></g></g><g><path d="m63 33.37c0-3.572-2.677-6.563-6.227-6.957l-2.972-.33-.304-1.217c.982-.708 1.74-1.704 2.153-2.866h1.35c1.654 0 3-1.346 3-3 0-.932-.436-1.756-1.105-2.307.704-1.191 1.105-2.556 1.105-3.943 0-4.273-3.477-7.75-7.75-7.75h-1.25v-2c0-1.103-.897-2-2-2h-46c-1.103 0-2 .897-2 2v2c0 1.103.897 2 2 2v24h29.27c.421.604.93 1.15 1.529 1.6 1.204.903 2.695 1.4 4.2 1.4h4v6.543c-1.069-.959-2.47-1.543-3.999-1.543-2.301 0-4.319 1.31-5.323 3.269-1.017-.792-2.291-1.269-3.677-1.269s-2.66.477-3.677 1.269c-1.004-1.959-3.022-3.269-5.323-3.269s-4.319 1.31-5.323 3.269c-1.017-.792-2.291-1.269-3.677-1.269-3.309 0-6 2.691-6 6v6.382l-1.236.618c-1.705.853-2.764 2.566-2.764 4.472v4.528h18 2 16 2 18v-4.528c0-1.905-1.059-3.619-2.764-4.472l-1.236-.618v-6.382c0-.702-.128-1.373-.35-2h10.35zm-11.086-6.589-1.914 2.552-1.915-2.552.255-1.02c.528.153 1.084.239 1.66.239s1.132-.086 1.659-.239zm2.086-6.781c0 2.206-1.794 4-4 4s-4-1.794-4-4v-3c0-.552.449-1 1-1h6c.551 0 1 .448 1 1zm3 0h-1v-2h1c.551 0 1 .448 1 1s-.449 1-1 1zm-4.75-13c3.17 0 5.75 2.579 5.75 5.75 0 1.157-.37 2.296-1.024 3.25h-1.16c-.414-1.161-1.514-2-2.816-2h-6c-1.302 0-2.402.839-2.816 2h-1.16c-.654-.953-1.024-2.092-1.024-3.25 0-3.171 2.58-5.75 5.75-5.75h1.25zm-9.25 11h1v2h-1c-.551 0-1-.448-1-1s.449-1 1-1zm-40-15h46l.001 2h-1.251-44.75zm2 26v-22h37.572c-1.575 1.419-2.572 3.468-2.572 5.75 0 1.387.401 2.753 1.105 3.943-.669.551-1.105 1.375-1.105 2.307 0 1.654 1.346 3 3 3h1.35c.412 1.161 1.17 2.157 2.153 2.866l-.307 1.227-7.206.9c-.518.069-.99-.353-.99-.876v-8.617c0-1.93-1.57-3.5-3.5-3.5s-3.5 1.57-3.5 3.5v9.5c0 .684.113 1.355.307 2zm31-9h-3v-2.5c0-.827.673-1.5 1.5-1.5s1.5.673 1.5 1.5zm7 27c0-2.206 1.794-4 4-4s4 1.794 4 4v10h-8zm-5-6c1.819 0 3.374 1.224 3.844 2.947-.532.896-.844 1.938-.844 3.053v6.382l-1.236.618c-.799.4-1.449.994-1.922 1.703-.583-.704-1.349-1.26-2.261-1.564l-2.171-.723.143-.285c.947-1.894 1.447-4.014 1.447-6.131 0-1.116-.312-2.157-.844-3.053.469-1.723 2.025-2.947 3.844-2.947zm-9 2c2.206 0 4 1.794 4 4 0 1.809-.427 3.619-1.236 5.236l-.382.764h-4.764l-.382-.764c-.809-1.617-1.236-3.427-1.236-5.236 0-2.206 1.794-4 4-4zm-9-2c1.819 0 3.374 1.224 3.844 2.947-.532.896-.844 1.938-.844 3.053 0 2.117.5 4.237 1.447 6.131l.143.285-2.172.723c-.911.304-1.678.86-2.26 1.563-.472-.708-1.122-1.302-1.922-1.702l-1.236-.618v-6.382c0-1.115-.312-2.157-.844-3.053.47-1.723 2.025-2.947 3.844-2.947zm-13 6c0-2.206 1.794-4 4-4s4 1.794 4 4v10h-8zm12 14h-16v-2.528c0-1.144.635-2.171 1.658-2.683l.342-.171v3.382h12v-3.382l.342.171c1.023.512 1.658 1.539 1.658 2.683v.411zm18 0h-16v-2.117c0-1.293.824-2.437 2.051-2.847l3.11-1.036h5.679l3.109 1.036c1.227.41 2.051 1.554 2.051 2.847zm16.342-5.211c1.023.512 1.658 1.539 1.658 2.683v2.528h-16v-2.117-.411c0-1.144.635-2.171 1.658-2.683l.342-.171v3.382h12v-3.382zm7.658-12.789h-3v-7.586c0-.645.251-1.251.708-1.707l-1.415-1.414c-.834.834-1.293 1.942-1.293 3.121v7.586h-4.54c-1.099-1.224-2.688-2-4.46-2-1.093 0-2.116.299-3 .812v-9.812h-6c-1.075 0-2.141-.355-3-1-1.252-.939-2-2.435-2-4v-5h3v4.117c0 1.59 1.293 2.883 2.883 2.883.12 0 .24-.008.357-.022l7.308-.913 3.452 4.602 3.457-4.61 3.095.344c2.536.282 4.448 2.417 4.448 4.969z"/><path d="m23 25h-2v-16h-6v16h-2v-10h-6v12h22v-14h-6zm-12 0h-2v-8h2zm6-14h2v14h-2zm8 4h2v10h-2z"/></g></g></svg>